<svg xmlns="http://www.w3.org/2000/svg" viewBox="0 -0.5 63 7" shape-rendering="crispEdges">
<metadata>Made with Pixels to Svg https://codepen.io/shshaw/pen/XbxvNj</metadata>
<path stroke="#10141f" d="M1 1h61M0 2h2M61 2h2M0 3h1M62 3h1M0 4h1M62 4h1M0 5h2M61 5h2M1 6h61" />
<path stroke="#73bed3" d="M2 2h46M1 3h48M1 4h49" />
<path stroke="#4f8fba" d="M48 2h2M49 3h2M50 4h2M51 5h2" />
<path stroke="#202e37" d="M50 2h6M60 2h1M51 3h8M61 3h1M52 4h8M61 4h1M53 5h8" />
<path stroke="#ebede9" d="M56 2h4M59 3h2M60 4h1" />
<path stroke="#3c5e8b" d="M2 5h49" />
</svg>