<svg xmlns="http://www.w3.org/2000/svg" viewBox="0 -0.5 59 57" shape-rendering="crispEdges">
<metadata>Made with Pixels to Svg https://codepen.io/shshaw/pen/XbxvNj</metadata>
<path stroke="#090a14" d="M9 0h3M7 1h2M12 1h2M5 2h2M14 2h1M4 3h1M15 3h1M3 4h1M16 4h1M2 5h1M8 5h4M16 5h1M2 6h1M7 6h1M12 6h1M16 6h1M1 7h1M7 7h1M13 7h1M15 7h1M1 8h1M6 8h1M14 8h1M1 9h1M6 9h1M1 10h1M6 10h1M1 11h1M6 11h1M1 12h1M6 12h1M1 13h1M6 13h1M1 14h1M6 14h1M1 15h1M6 15h1M1 16h1M7 16h1M1 17h1M7 17h1M49 17h2M52 17h1M1 18h1M8 18h1M48 18h1M51 18h1M53 18h1M1 19h1M8 19h2M47 19h1M53 19h1M2 20h1M10 20h1M16 20h7M46 20h1M53 20h1M2 21h1M11 21h5M23 21h6M45 21h1M53 21h1M3 22h1M29 22h1M44 22h1M54 22h1M3 23h1M29 23h4M44 23h1M55 23h1M3 24h1M33 24h3M42 24h2M55 24h1M3 25h1M36 25h6M56 25h1M3 26h1M57 26h1M3 27h1M57 27h1M4 28h1M57 28h1M4 29h1M57 29h1M4 30h1M5 31h1M56 31h1M5 32h1M55 32h1M5 33h1M50 33h5M5 34h1M48 34h2M5 35h1M47 35h1M5 36h1M47 36h1M5 37h1M47 37h1M4 38h1M47 38h1M3 39h1M47 39h1M3 40h1M47 40h1M3 41h1M47 41h1M2 42h1M26 42h3M48 42h1M2 43h1M13 43h2M24 43h2M29 43h2M38 43h2M48 43h1M1 44h1M11 44h2M14 44h1M23 44h1M30 44h1M38 44h1M40 44h1M49 44h1M1 45h1M10 45h1M14 45h1M22 45h1M30 45h1M37 45h1M40 45h1M49 45h1M1 46h1M8 46h2M14 46h1M22 46h1M31 46h1M37 46h1M41 46h1M49 46h1M1 47h1M7 47h1M15 47h1M22 47h1M31 47h1M37 47h1M42 47h1M50 47h1M1 48h1M6 48h1M15 48h1M22 48h1M32 48h1M37 48h1M43 48h1M51 48h1M1 49h1M6 49h1M15 49h1M23 49h1M32 49h1M37 49h1M44 49h1M51 49h1M1 50h1M6 50h1M16 50h1M23 50h1M32 50h1M37 50h1M45 50h1M52 50h1M1 51h1M6 51h1M17 51h1M24 51h2M33 51h1M38 51h1M46 51h1M53 51h1M1 52h1M6 52h1M18 52h1M26 52h1M33 52h1M39 52h1M47 52h1M54 52h1M1 53h1M7 53h1M19 53h2M27 53h1M33 53h1M40 53h1M48 53h1M55 53h1M1 54h1M7 54h1M21 54h1M27 54h1M34 54h6M49 54h1M56 54h1M2 55h1M7 55h1M22 55h5M50 55h1M56 55h1M3 56h4M51 56h5" />
<path stroke="#752438" d="M9 1h3M7 2h7M5 3h3M12 3h3M4 4h2M13 4h3M3 5h2M14 5h1M3 6h2M2 7h2M2 8h2M2 9h2M2 10h2M2 11h2M2 12h2M2 13h3M2 14h3M2 15h3M2 16h4M2 17h5M2 18h6M49 18h2M52 18h1M2 19h6M48 19h2M51 19h2M3 20h7M47 20h2M51 20h1M3 21h8M16 21h7M46 21h4M51 21h1M4 22h25M45 22h9M4 23h25M45 23h10M5 24h28M44 24h7M54 24h1M6 25h30M42 25h8M54 25h2M6 26h34M41 26h10M53 26h3M7 27h33M42 27h10M54 27h2M7 28h33M42 28h15M7 29h33M43 29h9M53 29h4M8 30h10M19 30h22M43 30h10M8 31h11M20 31h21M44 31h6M52 31h1M54 31h2M8 32h11M21 32h22M45 32h3M52 32h3M8 33h12M22 33h21M46 33h1M8 34h12M22 34h22M8 35h11M22 35h23M8 36h11M22 36h23M8 37h10M21 37h25M7 38h10M21 38h16M39 38h7M7 39h8M23 39h14M40 39h6M6 40h8M26 40h10M41 40h5M4 41h10M41 41h5M3 42h11M42 42h5M3 43h10M42 43h6M2 44h9M42 44h7M2 45h8M42 45h7M3 46h5M42 46h7M4 47h3M43 47h7M44 48h7M2 49h2M45 49h6M2 50h4M46 50h6M5 51h1M47 51h5M48 52h3M2 53h2M5 53h2M54 53h1M2 54h5M53 54h3M3 55h4M51 55h5" />
<path stroke="#411d31" d="M8 3h4M6 4h7M5 5h3M12 5h2M15 5h1M5 6h2M13 6h3M4 7h3M14 7h1M4 8h2M4 9h2M4 10h2M4 11h2M4 12h2M5 13h1M5 14h1M5 15h1M6 16h1M50 19h1M49 20h2M52 20h1M50 21h1M52 21h1M4 24h1M51 24h3M4 25h2M50 25h1M53 25h1M4 26h2M51 26h1M4 27h3M52 27h2M5 28h2M5 29h2M40 29h1M52 29h1M5 30h3M18 30h1M53 30h4M6 31h2M19 31h1M41 31h1M50 31h2M6 32h2M19 32h2M48 32h4M6 33h2M20 33h2M43 33h1M47 33h3M6 34h2M20 34h2M44 34h1M47 34h1M6 35h2M19 35h3M45 35h1M6 36h2M19 36h3M45 36h2M6 37h2M18 37h3M46 37h1M5 38h2M17 38h4M37 38h2M46 38h1M4 39h3M15 39h8M37 39h3M46 39h1M4 40h2M14 40h12M36 40h5M46 40h1M14 41h2M22 41h19M46 41h1M14 42h1M41 42h1M47 42h1M2 48h1M4 49h2M2 52h2M4 53h1M53 53h1M51 54h2" />
<path stroke="#819796" d="M51 25h1" />
<path stroke="#4f8fba" d="M52 25h1" />
<path stroke="#e8c170" d="M40 26h1M40 27h1M41 29h2M41 30h1M42 31h1M43 32h1M44 33h2M45 34h1M2 47h1M3 48h2M3 51h1M4 52h2M53 52h1M50 53h3" />
<path stroke="#a8b5b2" d="M52 26h1" />
<path stroke="#cf573c" d="M56 26h1" />
<path stroke="#e7d5b3" d="M41 27h1M40 28h2M42 30h1M43 31h1M44 32h1M2 46h1M3 47h1M2 51h1M4 51h1M52 51h1M51 52h2" />
<path stroke="#a53030" d="M56 27h1" />
<path stroke="#202e37" d="M57 30h1" />
<path stroke="#c7cfcc" d="M53 31h1" />
<path stroke="#de9e41" d="M46 34h1M46 35h1M5 48h1M49 53h1M50 54h1" />
<path stroke="#241527" d="M16 41h6M15 42h11M29 42h12M15 43h9M31 43h7M40 43h2M15 44h8M31 44h7M41 44h1M15 45h7M31 45h6M41 45h1M15 46h7M32 46h5M16 47h6M32 47h5M16 48h5M33 48h4M16 49h4M22 49h1M34 49h3M17 50h2M21 50h2M33 50h1M20 51h3M34 51h4M19 52h3M23 52h3M34 52h5M22 53h5M34 53h6M22 54h5" />
<path stroke="#be772b" d="M21 48h1M33 49h1M19 50h1M36 50h1M23 51h1" />
<path stroke="#884b2b" d="M20 49h2M20 50h1M34 50h2M18 51h2M22 52h1M21 53h1" />
</svg>