<svg xmlns="http://www.w3.org/2000/svg" viewBox="0 -0.5 62 102" shape-rendering="crispEdges">
<metadata>Made with Pixels to Svg https://codepen.io/shshaw/pen/XbxvNj</metadata>
<path stroke="#341c27" d="M40 0h3M39 1h1M43 1h1M30 2h5M38 2h1M44 2h1M28 3h2M35 3h4M45 3h1M27 4h1M38 4h1M45 4h1M26 5h1M45 5h1M25 6h1M39 6h1M24 7h1M24 8h1M23 9h1M41 9h1M23 10h1M41 10h1M23 11h1M41 11h1M23 12h1M41 12h1M23 13h1M41 13h1M23 14h1M41 14h1M23 15h1M41 15h1M23 16h1M41 16h1M24 17h1M40 17h1M24 18h1M40 18h1M25 19h1M39 19h1M26 20h1M38 20h1M27 21h1M37 21h1M28 22h2M35 22h2M30 23h5M26 36h2M28 37h1M17 38h3M29 38h1M42 38h2M10 39h7M29 39h1M44 39h2M6 40h4M28 40h1M54 40h1M5 41h1M24 41h4M55 41h2M4 42h1M57 42h1M3 43h3M56 43h1M58 43h1M2 44h1M6 44h3M55 44h1M58 44h1M2 45h1M9 45h6M51 45h4M59 45h1M1 46h1M15 46h4M29 46h5M44 46h9M59 46h1M1 47h1M17 47h2M50 47h3M59 47h1M1 48h1M10 48h1M18 48h2M50 48h3M60 48h1M1 49h1M16 49h1M18 49h2M50 49h3M60 49h1M1 50h1M9 50h1M12 50h1M18 50h2M51 50h2M60 50h1M1 51h1M17 51h3M51 51h1M60 51h1M1 52h1M10 52h1M14 52h1M18 52h2M51 52h1M60 52h1M1 53h1M18 53h2M51 53h1M60 53h1M1 54h1M18 54h2M60 54h1M1 55h1M18 55h3M60 55h1M1 56h1M19 56h2M60 56h1M1 57h1M19 57h2M38 57h2M60 57h1M1 58h1M19 58h1M39 58h1M60 58h1M1 59h1M19 59h1M60 59h1M1 60h1M60 60h1M1 61h1M39 61h1M60 61h1M1 62h1M19 62h1M39 62h1M60 62h1M1 63h1M19 63h1M39 63h1M60 63h1M1 64h1M60 64h1M1 65h1M52 65h1M60 65h1M1 66h1M60 66h1M1 67h1M43 67h1M45 67h1M48 67h2M60 67h1M1 68h1M60 68h1M1 69h1M44 69h1M48 69h1M60 69h1M1 70h1M19 70h1M44 70h1M48 70h1M60 70h1M1 71h1M19 71h1M48 71h1M60 71h1M1 72h1M19 72h1M47 72h2M60 72h1M1 73h1M19 73h1M47 73h2M60 73h1M1 74h1M18 74h2M47 74h3M60 74h1M1 75h1M18 75h2M47 75h3M60 75h1M18 76h2M47 76h3M18 77h2M47 77h3M17 78h3M30 78h1M47 78h4M17 79h3M30 79h1M47 79h2M17 80h3M30 80h1M46 80h1M3 81h1M17 81h3M30 81h1M58 81h1M4 82h1M18 82h2M29 82h3M58 82h1M5 83h1M19 83h2M29 83h3M57 83h1M20 84h1M29 84h3M56 84h1M28 85h4M28 86h4M16 88h2M5 89h3M16 89h4M42 89h4M55 89h2M3 90h3M7 90h1M15 90h7M40 90h7M53 90h5M3 91h1M14 91h3M18 91h6M38 91h4M43 91h4M58 91h1M3 92h1M6 92h1M15 92h2M18 92h7M37 92h5M44 92h3M49 92h1M58 92h1M3 93h1M6 93h1M11 93h1M15 93h2M18 93h7M37 93h6M44 93h2M48 93h2M54 93h2M58 93h1M3 94h2M6 94h1M11 94h1M15 94h1M17 94h8M37 94h6M44 94h2M48 94h1M52 94h1M55 94h1M58 94h1M4 95h1M8 95h1M11 95h1M15 95h1M23 95h2M37 95h2M44 95h2M48 95h1M51 95h2M57 95h1M4 96h1M10 96h2M48 96h1M5 97h1M10 97h1M55 97h1M8 98h2M50 98h2M53 98h2M51 99h3" />
<path stroke="#d7b594" d="M40 1h3M39 2h5M39 3h5M39 4h4M39 5h3M40 6h1M30 10h1M34 10h2M37 10h1M26 11h6M33 11h2M26 12h1M30 12h4M25 13h1M31 13h3M25 14h1M27 14h2M31 14h3M24 15h8M24 16h7M25 17h8M25 18h5M26 19h4M27 20h4M28 21h3M25 37h1M24 38h2M24 39h3M24 40h3M4 49h1M31 49h1M56 52h1M3 60h1M5 61h1M28 65h1M34 65h1M57 66h1M54 68h1M9 71h1M13 72h1M34 88h1M26 89h1M35 89h1M27 93h1M34 93h1M27 94h2M26 96h1M35 96h1M27 97h1M34 97h1M28 98h1M33 98h1" />
<path stroke="#de9e41" d="M30 3h5M28 4h2M31 4h6M27 5h6M35 5h1M26 6h2M29 6h1M31 6h5M25 7h6M32 7h3M36 7h1M25 8h3M30 8h2M33 8h2M26 9h4M31 9h2M40 9h1M28 10h1M32 10h1M39 10h2M39 11h2M40 12h1M40 13h1M40 14h1M40 15h1M49 37h1M49 38h1" />
<path stroke="#e7d5b3" d="M44 3h1M43 4h2M42 5h3M41 6h3M35 11h4M34 12h1M38 12h2M39 13h1M36 14h2M39 14h1M33 15h7M33 16h8M33 17h7M35 18h5M35 19h4M34 20h4M31 21h6M30 22h5M47 33h2M51 33h1M46 34h2M51 34h2M46 35h2M51 35h2M46 36h1M52 36h1M26 37h2M46 37h1M52 37h1M26 38h3M46 38h1M52 38h1M27 39h2M46 39h2M51 39h2M27 40h1M46 40h3M50 40h3M47 41h2M50 41h2M3 47h2M29 47h5M3 48h1M5 48h1M29 48h2M32 48h2M3 49h1M5 49h1M29 49h2M32 49h2M57 49h1M4 50h2M28 50h2M33 50h2M55 50h3M5 51h1M28 51h1M31 51h1M34 51h1M54 51h2M57 51h1M3 52h1M5 52h1M28 52h1M30 52h1M32 52h1M34 52h1M54 52h2M57 52h1M3 53h3M28 53h1M30 53h3M34 53h1M54 53h4M3 54h3M28 54h2M31 54h1M33 54h2M54 54h2M57 54h1M3 55h1M5 55h1M28 55h7M54 55h1M57 55h1M3 56h1M28 56h3M32 56h3M54 56h1M56 56h2M3 57h2M28 57h2M33 57h2M54 57h2M57 57h1M4 58h2M28 58h2M31 58h1M33 58h2M54 58h4M3 59h1M5 59h1M28 59h4M33 59h2M54 59h2M57 59h1M4 60h1M28 60h4M33 60h2M54 60h1M56 60h2M4 61h1M28 61h3M32 61h3M54 61h1M56 61h1M28 62h7M54 62h2M57 62h1M28 63h3M32 63h3M54 63h2M57 63h1M28 64h2M31 64h1M33 64h2M54 64h4M9 65h4M29 65h2M32 65h2M54 65h3M9 66h5M29 66h5M54 66h1M9 67h2M12 67h2M55 67h2M9 68h1M12 68h2M9 69h1M11 69h1M13 69h1M9 70h1M11 70h1M13 70h1M10 71h1M13 71h1M10 72h3M27 88h7M27 89h2M33 89h2M26 90h1M28 90h6M35 90h1M26 91h1M28 91h2M32 91h2M35 91h1M26 92h1M29 92h1M32 92h1M35 92h1M26 93h1M29 93h4M35 93h1M26 94h1M29 94h7M26 95h4M32 95h4M27 96h3M32 96h3M28 97h1M30 97h2M33 97h1M29 98h4" />
<path stroke="#be772b" d="M30 4h1M33 5h2M37 5h1M28 6h1M30 6h1M36 6h1M31 7h1M35 7h1M28 8h2M32 8h1M35 8h1M24 9h1M39 9h1M24 10h2M38 10h1M24 11h2M24 12h2M24 13h1M24 14h1" />
<path stroke="#e8c170" d="M37 4h1M36 5h1M38 5h1M37 6h2M37 7h3M36 8h4M35 9h4M36 10h1M49 33h2M48 34h3M48 35h3M47 36h5M47 37h2M50 37h2M47 38h1M51 38h1M48 39h1M50 39h1" />
<path stroke="#172038" d="M44 6h3M40 7h5M46 7h1M40 8h1M46 8h1M46 9h1M46 10h1M46 11h1M46 12h1M47 13h1M47 14h1M47 15h1M47 16h1M22 17h1M47 17h1M21 18h1M46 18h1M20 19h1M46 19h1M20 20h1M45 20h1M20 21h1M44 21h1M20 22h1M43 22h1M19 23h1M43 23h1M18 24h1M42 24h1M18 25h1M41 25h1M18 26h1M41 26h1M18 27h1M41 27h1M18 28h1M41 28h1M18 29h1M40 29h1M18 30h1M40 30h1M18 31h1M39 31h1M18 32h1M39 32h1M18 33h1M39 33h1M18 34h1M39 34h1M18 35h1M39 35h1M19 36h1M25 36h1M39 36h1M20 37h1M24 37h1M20 38h1M23 38h1M20 39h2M23 39h1M22 40h2M23 41h1" />
<path stroke="#3c5e8b" d="M45 7h1M43 8h3M44 9h2M42 10h1M44 10h2M42 11h1M42 12h1M42 13h1M42 14h1M42 15h2M42 16h3M23 17h1M41 17h2M39 20h1M22 21h3M38 21h1M21 22h5M37 22h2M20 23h8M35 23h3M41 23h1M19 24h5M25 24h5M35 24h1M40 24h2M20 25h3M25 25h1M27 25h7M39 25h2M20 26h3M25 26h1M29 26h4M34 26h2M39 26h2M21 27h2M25 27h2M31 27h1M33 27h2M38 27h3M19 28h1M22 28h1M25 28h3M32 28h2M38 28h2M19 29h4M25 29h4M32 29h2M37 29h2M19 30h5M26 30h5M36 30h1M19 31h5M27 31h4M38 31h1M19 32h5M28 32h3M38 32h1M19 33h4M25 33h1M29 33h2M37 33h2M19 34h4M25 34h2M30 34h1M35 34h4M19 35h3M24 35h1M26 35h3M34 35h2M20 36h1M22 36h3M28 36h3M33 36h2M21 37h3M30 37h4M36 37h2M21 38h2M33 38h3M22 39h1" />
<path stroke="#253a5e" d="M41 8h2M42 9h2M43 10h1M22 18h2M21 19h4M21 20h5M21 21h1M25 21h2M26 22h2M28 23h2M42 23h1M24 24h1M30 24h5M19 25h1M23 25h2M26 25h1M19 26h1M23 26h2M26 26h3M19 27h2M23 27h2M27 27h4M20 28h2M23 28h2M28 28h4M23 29h2M29 29h3M24 30h2M24 31h3M24 32h4M23 33h2M26 33h3M23 34h2M27 34h3M22 35h2M25 35h1M29 35h2M21 36h1M29 37h1M30 38h3M38 76h2M37 77h3M38 78h2M39 79h1M39 80h1M39 81h1M39 82h1M38 83h2M38 84h1M38 85h1" />
<path stroke="#884b2b" d="M25 9h1M26 10h1" />
<path stroke="#c09473" d="M30 9h1M33 9h2M27 10h1M29 10h1M31 10h1M33 10h1M32 11h1M32 15h1M31 16h2" />
<path stroke="#4f8fba" d="M43 11h3M43 12h3M43 13h4M43 14h4M44 15h3M45 16h2M43 17h4M41 18h5M40 19h6M40 20h5M39 21h5M39 22h4M38 23h3M36 24h4M34 25h5M33 26h1M36 26h3M32 27h1M35 27h3M34 28h4M40 28h1M34 29h3M39 29h1M31 30h5M37 30h3M31 31h7M31 32h7M31 33h6M31 34h4M31 35h3M36 35h3M31 36h2M35 36h4M34 37h2" />
<path stroke="#151d28" d="M27 12h3M35 12h1M26 13h5M34 13h1M26 14h1M29 14h2M34 14h1M30 39h7M29 40h8M28 41h9M27 42h9M27 43h9M28 44h1M33 44h2M23 49h2M38 49h2M22 50h4M37 50h4M29 52h1M31 52h1M29 53h1M30 54h1M31 56h1M30 57h1M30 58h1" />
<path stroke="#202e37" d="M36 12h2M35 13h4M35 14h1M38 14h1M48 26h2M48 27h3M48 28h1M50 28h1M48 29h1M50 29h1M48 30h1M50 30h1M49 31h1M38 37h1M36 38h3M37 39h2M21 40h1M37 40h1M21 41h2M20 42h7M20 43h3M25 43h2M20 44h2M26 44h2M35 44h1M20 45h2M26 45h3M34 45h2M20 46h3M25 46h3M35 46h2M20 47h8M35 47h2M21 48h7M35 48h4M21 49h2M25 49h3M35 49h3M40 49h1M21 50h1M26 50h1M30 50h3M36 50h1M4 51h1M21 51h1M23 51h2M26 51h1M29 51h2M32 51h2M36 51h1M38 51h2M41 51h1M4 52h1M33 52h1M33 53h1M56 54h1M4 55h1M55 55h2M4 56h1M55 56h1M31 57h2M56 57h1M3 58h1M32 58h1M4 59h1M32 59h1M56 59h1M5 60h1M55 60h1M55 61h1M57 61h1M56 62h1M31 63h1M56 63h1M30 64h1M32 64h1M31 65h1M57 65h1M55 66h2M54 67h1M10 68h2M10 69h1M12 69h1M10 70h1M12 70h1M11 71h2M29 89h4M27 90h1M34 90h1M27 91h1M30 91h2M34 91h1M27 92h2M30 92h2M33 92h2M28 93h1M33 93h1M30 95h2M30 96h2M29 97h1M32 97h1" />
<path stroke="#411d31" d="M30 18h4M30 19h3" />
<path stroke="#752438" d="M34 18h1M33 19h2M1 77h2M59 77h2M1 78h4M56 78h1M58 78h3M2 79h3M6 79h3M52 79h1M54 79h2M57 79h3M4 80h2M7 80h3M11 80h2M49 80h3M53 80h3M9 81h1M11 81h3M47 81h1M49 81h2M52 81h1M12 82h3M46 82h1M48 82h3M13 83h3M17 83h1M45 83h2M48 83h1M15 84h1M17 84h2M43 84h1M45 84h2M16 85h1M18 85h2M42 85h1M44 85h2M18 86h4M40 86h2M43 86h2M18 87h3M22 87h2M38 87h4M43 87h1M20 88h2M23 88h3M36 88h1M38 88h3M22 89h1M24 89h2M36 89h1M38 89h2M24 90h2M37 90h1" />
<path stroke="#a53030" d="M31 20h3M5 78h1M57 78h1M5 79h1M9 79h1M53 79h1M56 79h1M6 80h1M10 80h1M52 80h1M56 80h1M10 81h1M14 81h1M48 81h1M51 81h1M11 82h1M15 82h1M47 82h1M16 83h1M44 83h1M47 83h1M16 84h1M44 84h1M17 85h1M43 85h1M17 86h1M42 86h1M21 87h1M42 87h1M22 88h1M37 88h1M41 88h1M23 89h1M37 89h1M36 90h1" />
<path stroke="#394a50" d="M49 30h1M46 31h3M50 31h3M45 32h1M53 32h1M45 33h1M53 33h1M39 37h1M39 38h2M39 39h2M38 40h4M37 41h5M45 41h1M53 41h1M36 42h7M45 42h1M53 42h1M23 43h2M36 43h2M40 43h3M46 43h7M22 44h4M36 44h1M41 44h2M22 45h4M36 45h1M41 45h2M23 46h2M37 46h1M40 46h3M37 47h6M39 48h3M41 49h1M3 50h1M41 50h1M3 51h1M32 54h1M5 56h1M5 57h1M32 60h1M31 61h1" />
<path stroke="#577277" d="M46 32h1M52 32h1M45 34h1M53 34h1M45 40h1M53 40h1M46 42h1M52 42h1M38 43h2M37 44h4M37 45h4M38 46h2M4 48h1M31 48h1M56 51h1M11 67h1" />
<path stroke="#819796" d="M47 32h5M46 33h1M52 33h1M48 38h1M50 38h1M49 39h1M49 40h1M46 41h1M49 41h1M52 41h1M47 42h5M22 51h1M25 51h1M37 51h1M40 51h1M23 52h2M38 52h2" />
<path stroke="#10141f" d="M40 37h1M41 38h1M41 39h1M20 40h1M42 40h1M20 41h1M42 41h1M19 42h1M43 42h1M19 43h1M43 43h1M19 44h1M29 44h4M43 44h1M19 45h1M29 45h1M33 45h1M43 45h1M19 46h1M28 46h1M34 46h1M43 46h1M19 47h1M28 47h1M34 47h1M43 47h1M20 48h1M28 48h1M34 48h1M42 48h1M20 49h1M28 49h1M34 49h1M42 49h1M20 50h1M27 50h1M35 50h1M42 50h1M20 51h1M27 51h1M35 51h1M42 51h1M20 52h1M27 52h1M35 52h1M42 52h1M20 53h1M27 53h1M35 53h1M42 53h1M20 54h1M27 54h1M35 54h1M42 54h1M21 55h1M26 55h1M36 55h1M41 55h1M22 56h4M37 56h4" />
<path stroke="#ad7757" d="M17 39h3M42 39h2M10 40h9M44 40h1M6 41h6M19 41h1M43 41h1M54 41h1M5 42h5M12 42h7M44 42h1M54 42h3M6 43h8M17 43h2M44 43h2M53 43h3M9 44h8M48 44h7M15 45h4M30 45h3M44 45h7" />
<path stroke="#7a4841" d="M19 40h1M43 40h1M12 41h7M44 41h1M10 42h2M14 43h3M17 44h2M44 44h4M11 46h4M11 47h6M44 47h6M11 48h7M43 48h7M12 49h4M17 49h1M43 49h7M11 50h1M13 50h2M16 50h1M43 50h8M12 51h2M15 51h2M43 51h8M11 52h3M15 52h2M43 52h8M11 53h7M43 53h8M11 54h7M43 54h9M11 55h7M27 55h1M35 55h1M42 55h10M11 56h1M13 56h6M21 56h1M26 56h2M35 56h2M41 56h10M52 56h1M11 57h1M14 57h5M21 57h7M35 57h3M40 57h10M52 57h1M11 58h1M15 58h4M20 58h5M27 58h1M35 58h2M40 58h9M52 58h1M12 59h1M17 59h2M20 59h3M27 59h1M35 59h2M41 59h6M51 59h2M12 60h2M26 60h2M35 60h3M50 60h3M12 61h5M24 61h4M35 61h4M47 61h6M12 62h7M20 62h8M35 62h4M40 62h13M11 63h8M20 63h8M35 63h4M40 63h13M11 64h17M35 64h16M52 64h1M13 65h15M35 65h17M14 66h15M34 66h9M44 66h4M49 66h3M14 67h29M44 67h1M46 67h1M50 67h1M52 67h1M14 68h29M45 68h3M49 68h4M14 69h28M43 69h1M45 69h3M49 69h4M14 70h5M20 70h24M45 70h3M49 70h4M14 71h5M20 71h7M37 71h11M49 71h4M14 72h5M20 72h4M41 72h6M49 72h4M11 73h8M20 73h2M42 73h5M49 73h4M11 74h7M20 74h1M42 74h5M50 74h4M10 75h8M20 75h1M42 75h5M50 75h4M10 76h8M20 76h2M41 76h6M50 76h4M9 77h9M20 77h3M40 77h7M50 77h4M10 78h7M20 78h10M31 78h7M40 78h7M51 78h1M13 79h4M20 79h10M31 79h8M40 79h7M15 80h2M20 80h10M31 80h8M40 80h6M16 81h1M20 81h10M31 81h8M40 81h6M20 82h9M32 82h7M40 82h4M21 83h8M32 83h6M40 83h3M21 84h8M32 84h6M39 84h3M22 85h6M32 85h6M39 85h1M24 86h4M32 86h6M26 87h1M35 87h1" />
<path stroke="#4d2b32" d="M57 43h1M3 44h3M56 44h2M3 45h6M55 45h4M2 46h9M53 46h6M2 47h1M5 47h6M53 47h6M2 48h1M6 48h4M53 48h7M2 49h1M6 49h6M53 49h4M58 49h2M2 50h1M6 50h3M10 50h1M15 50h1M17 50h1M53 50h2M58 50h2M2 51h1M6 51h6M14 51h1M52 51h2M58 51h2M2 52h1M6 52h4M17 52h1M52 52h2M58 52h2M2 53h1M6 53h5M52 53h2M58 53h2M2 54h1M6 54h5M52 54h2M58 54h2M2 55h1M6 55h5M52 55h2M58 55h2M2 56h1M6 56h5M53 56h1M58 56h2M2 57h1M6 57h5M53 57h1M58 57h2M2 58h1M6 58h5M53 58h1M58 58h2M2 59h1M6 59h6M53 59h1M58 59h2M2 60h1M6 60h6M53 60h1M58 60h2M2 61h2M6 61h6M53 61h1M58 61h2M2 62h10M53 62h1M58 62h2M2 63h9M53 63h1M58 63h2M2 64h9M51 64h1M53 64h1M58 64h2M2 65h7M53 65h1M58 65h2M2 66h7M43 66h1M48 66h1M52 66h2M58 66h2M2 67h7M47 67h1M51 67h1M53 67h1M57 67h3M2 68h7M43 68h2M48 68h1M53 68h1M55 68h5M2 69h7M42 69h1M53 69h7M2 70h7M53 70h7M2 71h7M53 71h7M2 72h8M53 72h7M2 73h9M53 73h7M2 74h9M54 74h6M2 75h8M54 75h6M3 76h7M54 76h5M6 77h3M54 77h2M57 81h1M5 82h2M54 82h4M55 83h2M5 87h3M3 88h7M52 88h5M2 89h3M8 89h4M50 89h5M57 89h3M1 90h2M6 90h1M8 90h5M49 90h4M58 90h2M1 91h2M4 91h9M48 91h10M59 91h1M1 92h2M4 92h2M7 92h7M48 92h1M50 92h8M59 92h1M1 93h2M4 93h2M7 93h4M12 93h2M47 93h1M50 93h4M56 93h2M59 93h1M1 94h2M5 94h1M7 94h4M12 94h2M47 94h1M49 94h3M53 94h2M56 94h2M59 94h1M1 95h3M5 95h3M9 95h2M12 95h2M47 95h1M49 95h2M53 95h4M58 95h2M2 96h2M5 96h5M12 96h2M46 96h2M49 96h10M2 97h3M6 97h4M11 97h3M26 97h1M35 97h1M46 97h9M56 97h3M3 98h5M10 98h4M27 98h1M34 98h1M47 98h3M52 98h1M55 98h3M4 99h9M28 99h6M48 99h3M54 99h3M6 100h5M50 100h5" />
<path stroke="#a8b5b2" d="M21 52h1M26 52h1M36 52h1M41 52h1M21 53h2M25 53h2M36 53h2M40 53h2M23 54h2M38 54h2" />
<path stroke="#ebede9" d="M22 52h1M25 52h1M37 52h1M40 52h1M23 53h2M38 53h2M22 54h1M25 54h1M37 54h1M40 54h1" />
<path stroke="#c7cfcc" d="M21 54h1M26 54h1M36 54h1M41 54h1M22 55h4M37 55h4" />
<path stroke="#241527" d="M12 56h1M51 56h1M12 57h2M50 57h2M12 58h3M25 58h2M37 58h2M49 58h3M13 59h4M23 59h4M37 59h4M47 59h4M14 60h12M38 60h12M17 61h7M40 61h7M27 71h10M24 72h17M22 73h20M21 74h21M21 75h21M1 76h2M22 76h16M40 76h1M59 76h2M0 77h1M3 77h3M23 77h14M56 77h3M61 77h1M0 78h1M6 78h4M52 78h4M61 78h1M1 79h1M10 79h3M49 79h3M60 79h1M2 80h2M13 80h2M47 80h2M57 80h3M4 81h5M15 81h1M46 81h1M53 81h4M9 82h2M16 82h2M44 82h2M51 82h2M4 83h1M11 83h2M18 83h1M43 83h1M49 83h2M4 84h1M13 84h2M19 84h1M42 84h1M47 84h2M57 84h1M3 85h1M15 85h1M20 85h2M40 85h2M46 85h1M57 85h1M2 86h1M5 86h3M16 86h1M22 86h2M38 86h2M45 86h1M58 86h1M1 87h1M3 87h2M8 87h2M17 87h1M24 87h2M27 87h8M36 87h2M44 87h1M52 87h5M59 87h1M1 88h2M10 88h2M18 88h2M26 88h1M35 88h1M42 88h2M50 88h2M57 88h3M0 89h2M12 89h1M20 89h2M40 89h2M49 89h1M60 89h1M0 90h1M13 90h1M22 90h2M38 90h2M48 90h1M60 90h1M0 91h1M13 91h1M17 91h1M24 91h2M36 91h2M42 91h1M47 91h1M60 91h1M0 92h1M14 92h1M17 92h1M25 92h1M36 92h1M42 92h2M47 92h1M60 92h1M0 93h1M14 93h1M17 93h1M25 93h1M36 93h1M43 93h1M46 93h1M60 93h1M0 94h1M14 94h1M16 94h1M25 94h1M36 94h1M43 94h1M46 94h1M60 94h1M0 95h1M14 95h1M16 95h7M25 95h1M36 95h1M39 95h5M46 95h1M60 95h1M1 96h1M14 96h3M23 96h3M36 96h3M44 96h2M59 96h1M1 97h1M14 97h2M45 97h1M59 97h1M2 98h1M14 98h1M46 98h1M58 98h1M3 99h1M13 99h1M47 99h1M57 99h1M4 100h2M11 100h2M48 100h2M55 100h2M6 101h5M50 101h5" />
<path stroke="#602c2c" d="M7 82h2M53 82h1M6 83h5M51 83h4M5 84h8M49 84h7M4 85h11M47 85h10M3 86h2M8 86h8M46 86h12M2 87h1M10 87h7M45 87h7M57 87h2M12 88h4M44 88h6M13 89h3M46 89h3M14 90h1M47 90h1" />
</svg>