<svg xmlns="http://www.w3.org/2000/svg" viewBox="0 -0.5 63 9" shape-rendering="crispEdges">
<metadata>Made with Pixels to Svg https://codepen.io/shshaw/pen/XbxvNj</metadata>
<path stroke="#10141f" d="M1 1h61M0 2h2M61 2h2M0 3h1M62 3h1M0 4h1M62 4h1M0 5h2M1 6h59" />
<path stroke="#73bed3" d="M2 2h52M1 3h55M1 4h57" />
<path stroke="#4f8fba" d="M54 2h3M56 3h2M59 3h1M59 4h3M60 5h3M61 6h2M61 7h2M61 8h1" />
<path stroke="#202e37" d="M57 2h2M60 3h2" />
<path stroke="#ebede9" d="M59 2h2M58 3h1" />
<path stroke="#c7cfcc" d="M58 4h1" />
<path stroke="#3c5e8b" d="M2 5h57" />
<path stroke="#a8b5b2" d="M59 5h1" />
<path stroke="#253a5e" d="M60 6h1" />
</svg>